<?xml version="1.0" encoding="UTF-8" standalone="no"?>
<!-- Created with Inkscape (http://www.inkscape.org/) -->

<svg
   width="210mm"
   height="297mm"
   viewBox="0 0 210 297"
   version="1.1"
   id="svg1"
   inkscape:version="1.3.2 (091e20e, 2023-11-25, custom)"
   sodipodi:docname="Ptod.svg"
   xmlns:inkscape="http://www.inkscape.org/namespaces/inkscape"
   xmlns:sodipodi="http://sodipodi.sourceforge.net/DTD/sodipodi-0.dtd"
   xmlns="http://www.w3.org/2000/svg"
   xmlns:svg="http://www.w3.org/2000/svg">
  <sodipodi:namedview
     id="namedview1"
     pagecolor="#ffffff"
     bordercolor="#000000"
     borderopacity="0.25"
     inkscape:showpageshadow="2"
     inkscape:pageopacity="0.0"
     inkscape:pagecheckerboard="0"
     inkscape:deskcolor="#d1d1d1"
     inkscape:document-units="mm"
     inkscape:zoom="0.75465396"
     inkscape:cx="450.53762"
     inkscape:cy="504.2046"
     inkscape:window-width="1440"
     inkscape:window-height="837"
     inkscape:window-x="-8"
     inkscape:window-y="-8"
     inkscape:window-maximized="1"
     inkscape:current-layer="layer1" />
  <defs
     id="defs1" />
  <g
     inkscape:label="Слой 1"
     inkscape:groupmode="layer"
     id="layer1">
    <rect
       style="fill:#3c8fa2;fill-opacity:1;stroke-width:0.264583"
       id="rect6"
       width="18.841398"
       height="156.18533"
       x="42.145237"
       y="60.490818"
       ry="0" />
    <rect
       style="fill:#3c8fa2;fill-opacity:1;stroke-width:0.18832"
       id="rect6-0"
       width="18.841398"
       height="79.124397"
       x="81.401459"
       y="137.56105"
       ry="0" />
    <rect
       style="fill:#3c8fa2;fill-opacity:1;stroke-width:0.186791"
       id="rect6-9"
       width="18.841398"
       height="77.844765"
       x="110.95401"
       y="61.232857"
       ry="0" />
    <rect
       style="fill:#3c8fa2;fill-opacity:1;stroke-width:0.137785"
       id="rect6-9-5"
       width="82.803001"
       height="9.172821"
       x="46.970211"
       y="129.91853"
       ry="0" />
    <rect
       style="fill:#3c8fa2;fill-opacity:1;stroke-width:0.137682"
       id="rect6-9-5-6"
       width="82.679047"
       height="9.172821"
       x="47.056515"
       y="60.536179"
       ry="0" />
    <path
       style="fill:#3c8fa2;fill-opacity:1;stroke-width:0.267796"
       id="path7"
       sodipodi:type="arc"
       sodipodi:cx="123.46077"
       sodipodi:cy="185.44035"
       sodipodi:rx="30.245405"
       sodipodi:ry="31.238352"
       sodipodi:start="0"
       sodipodi:end="6.2765052"
       sodipodi:open="true"
       sodipodi:arc-type="arc"
       d="m 153.70617,185.44035 a 30.245405,31.238352 0 0 1 -30.19489,31.23831 30.245405,31.238352 0 0 1 -30.295747,-31.13397 30.245405,31.238352 0 0 1 30.093707,-31.3423 30.245405,31.238352 0 0 1 30.39626,31.02929" />
    <path
       style="fill:#3c8fa2;fill-opacity:1;stroke-width:0.264583"
       id="path8"
       sodipodi:type="arc"
       sodipodi:cx="116.26845"
       sodipodi:cy="174.16164"
       sodipodi:rx="5.65346"
       sodipodi:ry="5.5219846"
       sodipodi:start="0"
       sodipodi:end="6.2765052"
       sodipodi:open="true"
       sodipodi:arc-type="arc"
       d="m 121.92191,174.16164 a 5.65346,5.5219846 0 0 1 -5.64402,5.52197 5.65346,5.5219846 0 0 1 -5.66287,-5.50353 5.65346,5.5219846 0 0 1 5.6251,-5.54036 5.65346,5.5219846 0 0 1 5.68166,5.48503" />
    <path
       style="fill:#ffffff;fill-opacity:1;stroke-width:0.287069"
       id="path9"
       sodipodi:type="arc"
       sodipodi:cx="123.67493"
       sodipodi:cy="184.9865"
       sodipodi:rx="12.095777"
       sodipodi:ry="12.490203"
       sodipodi:start="0"
       sodipodi:end="6.2765052"
       sodipodi:open="true"
       sodipodi:arc-type="arc"
       d="m 135.7707,184.9865 a 12.095777,12.490203 0 0 1 -12.07557,12.49018 12.095777,12.490203 0 0 1 -12.11591,-12.44847 12.095777,12.490203 0 0 1 12.03511,-12.53176 12.095777,12.490203 0 0 1 12.1561,12.40661" />
    <path
       style="fill:#ffffff;fill-opacity:1;stroke-width:1.32511"
       d="M 230.56925,376.99398 V 263.69702 h 94.08286 94.08286 v 113.29696 113.29696 h -94.08286 -94.08286 z"
       id="path10"
       transform="scale(0.26458333)" />
    <path
       style="fill:#ffffff;fill-opacity:1;stroke-width:1.32511"
       d="M 230.56925,376.99398 V 263.69702 h 94.08286 94.08286 v 113.29696 113.29696 h -94.08286 -94.08286 z"
       id="path11"
       transform="scale(0.26458333)" />
    <path
       style="fill:#ffffff;fill-opacity:1;stroke-width:1.32511"
       d="M 230.56925,376.99398 V 263.69702 h 94.08286 94.08286 v 113.29696 113.29696 h -94.08286 -94.08286 z"
       id="path12"
       transform="scale(0.26458333)" />
    <path
       style="fill:#1c3c76;fill-opacity:1;stroke-width:1.32511"
       d="M 160.33839,524.08126 V 229.24414 h 164.97628 164.97627 v 147.74984 147.74984 h -56.3172 -56.3172 v 51.15482 51.15484 l 9.11311,-9.20394 c 15.61562,-15.77127 34.64342,-26.66318 55.31864,-31.66552 13.48747,-3.26327 37.92259,-2.93508 51.4439,0.69098 40.07519,10.74707 72.09096,43.21836 83.11108,84.29355 4.16618,15.52858 4.15893,43.32467 -0.0154,58.87886 -7.8729,29.33582 -24.94083,53.52907 -49.06892,69.55362 -18.91563,12.5627 -38.24223,18.24221 -61.78259,18.15605 -18.70974,-0.0685 -31.42478,-3.22603 -49.5717,-12.31026 -11.3534,-5.68344 -15.98343,-8.99843 -26.17093,-18.73775 l -12.37722,-11.8327 v 22.02101 22.021 h -34.45288 -34.45288 v -147.107 -147.107 l -39.42204,0.351 -39.42204,0.35099 -0.33706,146.75601 -0.33707,146.756 h -34.44709 -34.44709 z m 326.18903,218.44155 c 19.93993,-8.94851 31.28606,-33.11032 25.73085,-54.79441 -4.02913,-15.72725 -14.52616,-27.97546 -28.48773,-33.24025 -10.42696,-3.93191 -27.07024,-3.14135 -36.57193,1.73718 -8.23417,4.22772 -18.46521,14.97225 -22.15654,23.26858 -3.80007,8.54068 -4.64425,24.04054 -1.83554,33.70215 7.89829,27.16918 37.53883,40.89705 63.32089,29.32675 z M 420.06008,376.98521 V 262.35437 l -95.07669,0.34005 -95.07669,0.34004 -0.33864,114.2908 -0.33863,114.29079 h 95.41533 95.41532 z"
       id="path13"
       transform="scale(0.26458333)" />
  </g>
</svg>
